<svg xmlns="http://www.w3.org/2000/svg" viewBox="0 0 448.32 371.42" id="page-not-found"><g data-name="Layer 2"><g data-name="Layer 1"><path fill="none" stroke="#008ef8" stroke-linecap="round" stroke-linejoin="round" d="M46.03 34.32h78.73v55.44H46.03z" transform="rotate(-164.89 85.397 62.037)"></path><circle cx="87.28" cy="100.36" r="35.21" fill="#c1e3f7"></circle><ellipse cx="403.31" cy="336.68" fill="none" stroke="#ff5061" stroke-linecap="round" stroke-linejoin="round" rx="19.68" ry="34.1"></ellipse><path fill="#ff5061" d="M386.43 351.68c-2.81-6.46-.69-10.42-.69-15 0-9.62 3.22-20.53 9-27.37a52.48 52.48 0 0 1 2.45 15.13c-.04 9.63-5.02 20.4-10.76 27.24Z"></path><ellipse cx="373.03" cy="324.51" fill="#fff" rx="19.68" ry="34.1"></ellipse><path fill="#ff5061" d="M421.34 337.75c0 3.81 1.55 6.85-.56 12-9-7.21-15.83-19.32-15.83-31.78a55.47 55.47 0 0 1 1.9-13c9.04 7.14 14.49 20.32 14.49 32.78Z"></path><ellipse cx="428.14" cy="316" fill="#fff" rx="19.68" ry="34.1"></ellipse><path fill="none" stroke="#ff5061" stroke-linecap="round" stroke-linejoin="round" d="M403.31 370.78v-51.13M403.31 339.68l7.97-9.12M403.31 350.55l11.48-13.13M403.31 361.77l11.86-13.56M403.31 339.7l-9.67-11.05M403.31 350.58l-11.86-13.57M403.31 361.79l-11.86-13.56"></path><ellipse cx="428.14" cy="316" fill="none" stroke="#008ef8" stroke-miterlimit="10" rx="19.68" ry="34.1"></ellipse><path fill="none" stroke="#008ef8" stroke-linecap="round" stroke-linejoin="round" d="M428.14 298.97v71.95M428.14 318.99l9.65-11.03M428.14 329.87 440 316.31M428.14 341.09 440 327.52M428.14 319.02l-9.66-11.06M428.14 329.9l-11.86-13.57M428.14 341.11l-11.86-13.56"></path><ellipse cx="373.03" cy="324.51" fill="none" stroke="#ffcd52" stroke-linecap="round" stroke-linejoin="round" rx="19.68" ry="34.1"></ellipse><path fill="none" stroke="#ffcd52" stroke-linecap="round" stroke-linejoin="round" d="M373.03 307.47v63.45M373.03 327.5l9.64-11.03M373.03 338.38l11.86-13.56M373.03 349.59l11.86-13.56M373.03 327.52l-9.67-11.05M373.03 338.4l-11.86-13.56M373.03 349.61l-11.86-13.56"></path><path fill="#ffccd8" d="m93.49 178.37-52.68 79.34a74.59 74.59 0 0 1 .27-9.77l43.53-65.57a67.61 67.61 0 0 1 8.88-4ZM70.58 191.71l-26.45 39.84a80.75 80.75 0 0 1 26.45-39.84ZM108.94 174.2l-66 99.42a72.42 72.42 0 0 1-1.33-7.36l60.12-90.57a54.94 54.94 0 0 1 7.21-1.49ZM122.81 173.08l-75.49 113.7a51.25 51.25 0 0 1-2.32-5.93l71.42-107.57a48.4 48.4 0 0 1 6.39-.2ZM135.27 174.08l-82.19 123.8a53.05 53.05 0 0 1-2.86-5.07l79.3-119.44h.83c1.65.21 3.29.44 4.92.71ZM146.37 176.66 59.76 307.11a63.157 63.157 0 0 1-3.34-4.33l84.69-127.57a47.58 47.58 0 0 1 5.26 1.45ZM156.52 180.47 67.25 314.94a59.571 59.571 0 0 1-3.77-3.68l88.15-132.79a46.79 46.79 0 0 1 4.89 2ZM166.17 185.7 75.82 321.81a43.31 43.31 0 0 1-4.15-3.13l90-135.63c1.55.82 3.08 1.7 4.5 2.65ZM175 192.21 85.23 327.5c-1.54-.78-3-1.59-4.55-2.53L171 189a41.61 41.61 0 0 1 4 3.21ZM183.16 200 95.58 331.94c-1.68-.55-3.35-1.23-5-1.91l88.92-133.87c1.23 1.25 2.5 2.53 3.66 3.84ZM190.26 209.09l-83.54 125.84a48.6 48.6 0 0 1-5.4-1.23L187 204.63a46.68 46.68 0 0 1 3.26 4.46ZM196.35 219.79l-77.41 116.59c-1.46 0-2.9-.12-4.31-.25-.53 0-1.11-.11-1.61-.2l80.62-121.43a58.36 58.36 0 0 1 2.71 5.29ZM201 232.08l-68.95 103.86a55.53 55.53 0 0 1-6.55.5L199 225.8a49 49 0 0 1 2 6.28ZM203.84 246.9l-57 85.91a61.36 61.36 0 0 1-7.49 1.92l63.45-95.57a71.66 71.66 0 0 1 1.04 7.74ZM203.25 267.47l-37.63 56.68a66.32 66.32 0 0 1-9.64 5.16l48.26-72.69c-.06 1.95-.17 4-.37 6-.15 1.62-.38 3.27-.62 4.85ZM180 312.75 198.43 285A80.78 80.78 0 0 1 180 312.75Z"></path><path fill="none" stroke="#0850ec" stroke-dasharray="12" stroke-linecap="round" stroke-linejoin="round" d="M263.66 275c-8.87-15.59-21.83-43.89-21.81-80.53 0-19.85 0-48.28 20.13-73.83 20.52-26.05 49.43-33.21 59.57-35.23"></path><path fill="#f44552" d="M219.45 292.42a11.7 11.7 0 0 1-5.2-8.4 13.32 13.32 0 0 1 .42-5.07 17.66 17.66 0 0 1 .87-2.37c.39-.74.8-1.47 1.24-2.17-.24.8-.55 1.56-.78 2.35l-.31 1.18a8.15 8.15 0 0 0-.26 1.19c-.05.4-.12.79-.19 1.19s-.05.8-.07 1.2a5.26 5.26 0 0 0 0 1.19c0 .4 0 .8.08 1.19a13.86 13.86 0 0 0 1.38 4.55 15.83 15.83 0 0 0 2.82 3.97Z"></path><path fill="#f44552" d="M219.11 292.77a20.38 20.38 0 0 1-5-3.61 19.66 19.66 0 0 1-3.72-5 14.5 14.5 0 0 1-1.64-6 14.15 14.15 0 0 1 1-6.06c-.06.51-.14 1-.22 1.51a6.93 6.93 0 0 0-.14 1.5l-.05 1.5.14 1.48a16.33 16.33 0 0 0 1.76 5.61 24 24 0 0 0 3.4 4.88 33.92 33.92 0 0 0 4.47 4.19Z"></path><circle cx="217.31" cy="273.51" r="1.5" fill="#0850ec"></circle><circle cx="210.08" cy="270.96" r="1.5" fill="#0850ec"></circle><rect width="27.24" height="5.41" x="217.17" y="294.3" fill="#0850ec" rx="2.7" transform="rotate(-159.26 230.805 296.99)"></rect><path fill="#f44552" d="m224.29 291.65 8 3 5.34-14.1a7.62 7.62 0 0 0-5.36-10.11 6.81 6.81 0 0 0-5.27 1.29 11.19 11.19 0 0 0-4.54 11.85Z"></path><path fill="#fda01f" d="m224.83 291.81 6.78 2.57 4.53-11.95a6.47 6.47 0 0 0-4.55-8.57 5.79 5.79 0 0 0-4.46 1.1 9.48 9.48 0 0 0-3.85 10Z"></path><path fill="#f44552" d="m236.65 296.33-4.36-1.65 4.06-10.68c2.75-3 7.6-5 10.25-1.87a6.1 6.1 0 0 1 1.11 4.69 10 10 0 0 1-7.54 8.37Z"></path><path fill="#fda01f" d="m236.08 296.06-3.08-1.17 2.87-7.59c1.94-2.14 5.38-3.52 7.26-1.33a4.32 4.32 0 0 1 .78 3.32 7 7 0 0 1-5.33 5.93Z"></path><path fill="#d24131" d="m239 281.78-5.12 13.51-1.62-.61 4.09-10.68a11.75 11.75 0 0 1 2.65-2.22Z"></path><path fill="#d86c1d" d="m233.93 295.25-.94-.36 2.87-7.59a8.24 8.24 0 0 1 1.59-1.34ZM241.68 298.32a6.89 6.89 0 0 1-.48 2.7 6.8 6.8 0 0 1-1.42 2.36 7.51 7.51 0 0 1 1.9-5.06ZM239.13 297.35a6.94 6.94 0 0 1-.48 2.71 6.67 6.67 0 0 1-1.42 2.35 7.56 7.56 0 0 1 1.9-5.06ZM236.79 296.47a6.89 6.89 0 0 1-.48 2.7 6.8 6.8 0 0 1-1.42 2.36 6.91 6.91 0 0 1 .48-2.71 7 7 0 0 1 1.42-2.35ZM234.49 295.6a6.71 6.71 0 0 1-.48 2.7 6.8 6.8 0 0 1-1.42 2.36 6.91 6.91 0 0 1 .48-2.71 7 7 0 0 1 1.42-2.35ZM232.15 294.71a6.9 6.9 0 0 1-.49 2.7 6.8 6.8 0 0 1-1.42 2.36 6.77 6.77 0 0 1 .49-2.71 6.67 6.67 0 0 1 1.42-2.35ZM229.87 293.85a6.89 6.89 0 0 1-.48 2.7 6.8 6.8 0 0 1-1.42 2.36 7.51 7.51 0 0 1 1.9-5.06ZM227.6 293a6.91 6.91 0 0 1-.49 2.71 6.8 6.8 0 0 1-1.42 2.36 7.63 7.63 0 0 1 1.91-5.07ZM225.43 292.17a6.71 6.71 0 0 1-.48 2.7 6.8 6.8 0 0 1-1.42 2.36 7.64 7.64 0 0 1 1.9-5.06ZM223.39 291.23a6.9 6.9 0 0 1-.49 2.7 6.8 6.8 0 0 1-1.42 2.36 6.77 6.77 0 0 1 .49-2.71 6.67 6.67 0 0 1 1.42-2.35ZM221.08 290.43a6.94 6.94 0 0 1-.48 2.71 6.67 6.67 0 0 1-1.42 2.35 6.71 6.71 0 0 1 .48-2.7 6.8 6.8 0 0 1 1.42-2.36Z"></path><path fill="#f46534" d="M274.09 0a78.74 78.74 0 0 1 1.21 7.89c.3 2.63.48 5.27.65 7.92s.22 5.29.2 7.94a79 79 0 0 1-.35 8 75.92 75.92 0 0 1-1.2-7.89c-.31-2.63-.49-5.27-.65-7.92s-.22-5.29-.21-7.94.08-5.33.35-8Z"></path><path fill="#f46534" d="M290.81 15c-2.62.55-5.26.91-7.89 1.2s-5.28.49-7.92.65-5.29.22-7.94.21a78.84 78.84 0 0 1-8-.36c2.62-.55 5.25-.91 7.89-1.2s5.27-.49 7.91-.65 5.29-.22 7.95-.2a76.13 76.13 0 0 1 8 .35ZM255.07 33.25a36.56 36.56 0 0 1 1.06 5.3c.24 1.77.42 3.55.51 5.33s.12 3.56.07 5.35a36.35 36.35 0 0 1-.49 5.38 36.6 36.6 0 0 1-1.07-5.3c-.24-1.77-.42-3.55-.51-5.33s-.11-3.56-.06-5.35a36.47 36.47 0 0 1 .49-5.38Z"></path><path fill="#f46534" d="M266.32 43.36a38 38 0 0 1-5.3 1.06c-1.77.24-3.54.41-5.32.51s-3.57.12-5.36.07a36.6 36.6 0 0 1-5.38-.49 35.3 35.3 0 0 1 5.3-1.07c1.77-.24 3.55-.42 5.33-.51s3.56-.11 5.35-.06a36.35 36.35 0 0 1 5.38.49ZM95.26 273.05a76.33 76.33 0 0 1 1.2 7.89c.31 2.64.49 5.28.65 7.92s.23 5.29.21 7.94a78.83 78.83 0 0 1-.35 8 79 79 0 0 1-1.21-7.88c-.3-2.64-.48-5.28-.64-7.92s-.22-5.29-.21-7.94.09-5.34.35-8.01Z"></path><path fill="#f46534" d="M112 288.06c-2.63.55-5.26.91-7.89 1.2s-5.28.49-7.92.65-5.29.23-7.94.21a78.83 78.83 0 0 1-8-.35 79 79 0 0 1 7.88-1.21c2.64-.3 5.28-.48 7.92-.64s5.29-.23 7.94-.21a79.15 79.15 0 0 1 8.01.35ZM76.23 306.31a36.2 36.2 0 0 1 1.07 5.29c.24 1.78.41 3.55.51 5.33s.12 3.56.07 5.35a36.37 36.37 0 0 1-.5 5.38 36.16 36.16 0 0 1-1.06-5.29c-.24-1.78-.42-3.55-.51-5.33s-.11-3.57-.06-5.35a37.73 37.73 0 0 1 .48-5.38Z"></path><path fill="#f46534" d="M87.49 316.41a36.56 36.56 0 0 1-5.3 1.06c-1.77.25-3.55.42-5.33.51s-3.56.12-5.35.07a36.35 36.35 0 0 1-5.38-.49 36.6 36.6 0 0 1 5.3-1.07c1.77-.24 3.55-.41 5.33-.5s3.56-.12 5.35-.07a36.47 36.47 0 0 1 5.38.49ZM419 144.66a78.74 78.74 0 0 1 1.21 7.89c.3 2.63.48 5.27.65 7.92s.22 5.28.2 7.94a76.13 76.13 0 0 1-.35 8 75.92 75.92 0 0 1-1.2-7.89c-.3-2.63-.49-5.28-.65-7.92s-.22-5.29-.2-7.94a78.81 78.81 0 0 1 .34-8Z"></path><path fill="#f46534" d="M435.68 159.66a78.74 78.74 0 0 1-7.89 1.21c-2.63.3-5.28.48-7.92.65s-5.29.22-7.94.21a78.84 78.84 0 0 1-8-.36 78.7 78.7 0 0 1 7.89-1.2c2.63-.3 5.27-.49 7.91-.65s5.29-.22 7.95-.2a78.93 78.93 0 0 1 8 .34ZM399.94 177.91a36.56 36.56 0 0 1 1.06 5.3c.24 1.77.42 3.55.51 5.33s.12 3.56.07 5.35a36.47 36.47 0 0 1-.49 5.38A36.6 36.6 0 0 1 400 194c-.24-1.77-.42-3.55-.51-5.33s-.11-3.56-.06-5.35a36.47 36.47 0 0 1 .51-5.41Z"></path><path fill="#f46534" d="M411.19 188a37.66 37.66 0 0 1-5.3 1.06c-1.77.24-3.54.41-5.32.51s-3.57.12-5.35.07a38 38 0 0 1-5.39-.49 35.3 35.3 0 0 1 5.3-1.07c1.77-.24 3.55-.42 5.33-.51s3.56-.11 5.35-.06a36.35 36.35 0 0 1 5.38.49Z"></path><path fill="#c1e3f7" d="M202.38 153.09h102.43a31 31 0 0 1 31 31v174a12 12 0 0 1-12 12H183.38a12 12 0 0 1-12-12v-174a31 31 0 0 1 31-31Z"></path><path fill="#f2f2f2" d="M191.17 364.56a13.63 13.63 0 0 1-3.54-.5 13.25 13.25 0 0 1-3.23-1.52 12.22 12.22 0 0 1-4.49-5.5 12 12 0 0 1-.85-3.5c-.1-1.21-.05-2.39-.08-3.58l-.06-7.15-.14-28.59-.11-57.22.11-57.19v-7.14a38.52 38.52 0 0 1 .59-7.18 30.86 30.86 0 0 1 5.88-13 31.18 31.18 0 0 1 24.88-12.15 30.91 30.91 0 0 0-24.49 12.45 30.28 30.28 0 0 0-5.64 12.85 37.77 37.77 0 0 0-.51 7.06v7.14l.12 57.19-.12 57.19-.14 28.59-.06 7.15c0 1.19-.06 2.39 0 3.56a11.54 11.54 0 0 0 .77 3.43 12 12 0 0 0 4.33 5.49 12.87 12.87 0 0 0 3.18 1.56 13.48 13.48 0 0 0 3.6.56Z"></path><path fill="#f44552" d="M195.99 134.63H311.2v18.46H195.99z"></path><path fill="none" stroke="#0850ec" stroke-dasharray="12" stroke-linecap="round" stroke-linejoin="round" d="M117.69 356.39c3.19-13.88 10.29-35.33 27.68-54.53 18.72-20.67 40.61-29.08 73-41.11 20.8-7.72 22.45-6.27 72.15-21 53.77-15.91 63.43-21 70.47-31.88 10.56-16.27 10.27-37.78 4.19-53.69-6.52-17.06-18.94-25.68-32.72-35.24-11.76-8.16-37.35-25.92-73.82-24.33-29.17 1.28-50.19 14.26-59.57 21"></path><path fill="#f44552" d="M353.49 70a15.72 15.72 0 0 0 2.73-4 13.84 13.84 0 0 0 1.27-4.58c.05-.39 0-.79.05-1.19a5.9 5.9 0 0 0 0-1.19c0-.4 0-.8-.1-1.2s-.16-.79-.22-1.19a7.69 7.69 0 0 0-.29-1.17l-.33-1.18c-.26-.78-.59-1.53-.84-2.33.45.69.88 1.41 1.29 2.14a18.17 18.17 0 0 1 .92 2.35 13.27 13.27 0 0 1 .55 5.06 11.69 11.69 0 0 1-5.03 8.48Z"></path><path fill="#f44552" d="M353.84 70.33a33.87 33.87 0 0 0 4.3-4.25 24.19 24.19 0 0 0 3.27-5 16.44 16.44 0 0 0 1.59-5.61l.11-1.49-.09-1.49a6.75 6.75 0 0 0-.18-1.49c-.09-.5-.18-1-.25-1.51a14.25 14.25 0 0 1 1.19 6 14.63 14.63 0 0 1-1.5 6 19.39 19.39 0 0 1-3.6 5 20.23 20.23 0 0 1-4.84 3.84Z"></path><circle cx="355.16" cy="51.03" r="1.5" fill="#0850ec"></circle><circle cx="362.33" cy="48.31" r="1.5" fill="#0850ec"></circle><rect width="27.24" height="5.41" x="328.65" y="72.14" fill="#0850ec" rx="2.7" transform="rotate(-22.15 342.243 74.841)"></rect><path fill="#f44552" d="m348.63 69.34-7.93 3.22L335 58.6a7.62 7.62 0 0 1 5.11-10.24 6.87 6.87 0 0 1 5.31 1.16 11.19 11.19 0 0 1 4.82 11.73Z"></path><path fill="#ffcd52" d="m348.1 69.52-6.72 2.73-4.82-11.83a6.47 6.47 0 0 1 4.33-8.68 5.81 5.81 0 0 1 4.5 1 9.52 9.52 0 0 1 4.09 10Z"></path><path fill="#f44552" d="m336.39 74.32 4.31-1.76-4.32-10.62c-2.81-2.95-7.72-4.79-10.29-1.62a6.1 6.1 0 0 0-1 4.72 9.94 9.94 0 0 0 7.74 8.18Z"></path><path fill="#ffcd52" d="m337 74 3-1.2-3-7.52c-2-2.09-5.46-3.39-7.28-1.15a4.32 4.32 0 0 0-.7 3.34 7 7 0 0 0 5.48 5.79Z"></path><path fill="#d24131" d="m333.66 59.83 5.44 13.39 1.6-.66-4.32-10.62a12 12 0 0 0-2.72-2.11Z"></path><path fill="#d86c1d" d="m339.08 73.17.93-.37-3.01-7.52a8.17 8.17 0 0 0-1.66-1.28ZM331.41 76.43a7 7 0 0 1 1.48 2.32 6.85 6.85 0 0 1 .55 2.7 6.73 6.73 0 0 1-1.44-2.32 6.89 6.89 0 0 1-.59-2.7ZM333.94 75.41a6.81 6.81 0 0 1 1.47 2.31 6.72 6.72 0 0 1 .55 2.7 6.85 6.85 0 0 1-1.47-2.32 6.67 6.67 0 0 1-.55-2.69ZM336.25 74.46a7 7 0 0 1 1.48 2.32 6.85 6.85 0 0 1 .55 2.7 6.73 6.73 0 0 1-1.48-2.32 6.89 6.89 0 0 1-.55-2.7ZM338.53 73.54a6.81 6.81 0 0 1 1.47 2.31 6.72 6.72 0 0 1 .55 2.7 7.6 7.6 0 0 1-2-5ZM340.85 72.59a6.73 6.73 0 0 1 1.48 2.32 6.84 6.84 0 0 1 .55 2.69 6.64 6.64 0 0 1-1.48-2.32 7 7 0 0 1-.55-2.69ZM343.11 71.67a6.85 6.85 0 0 1 1.47 2.33 6.67 6.67 0 0 1 .55 2.69 6.72 6.72 0 0 1-1.47-2.31 6.93 6.93 0 0 1-.55-2.71ZM345.36 70.76a7 7 0 0 1 1.48 2.31 6.89 6.89 0 0 1 .55 2.7 6.73 6.73 0 0 1-1.48-2.32 6.84 6.84 0 0 1-.55-2.69ZM347.5 69.88a7 7 0 0 1 1.5 2.32 6.85 6.85 0 0 1 .55 2.7 6.73 6.73 0 0 1-1.48-2.32 6.85 6.85 0 0 1-.57-2.7ZM349.53 68.9a6.81 6.81 0 0 1 1.47 2.31 6.72 6.72 0 0 1 .55 2.7 7 7 0 0 1-1.48-2.32 6.84 6.84 0 0 1-.54-2.69ZM351.81 68a7 7 0 0 1 1.48 2.32 6.85 6.85 0 0 1 .55 2.7 6.73 6.73 0 0 1-1.48-2.32 6.89 6.89 0 0 1-.55-2.7Z"></path><path fill="#f44552" d="M264.14 303a15.5 15.5 0 0 0 2.73-4 13.72 13.72 0 0 0 1.26-4.58c.06-.4 0-.8.06-1.19a6.88 6.88 0 0 0 0-1.2c0-.39 0-.8-.1-1.19s-.16-.79-.22-1.19a8.13 8.13 0 0 0-.29-1.18l-.33-1.18c-.26-.77-.59-1.53-.84-2.33.45.7.88 1.42 1.29 2.15a17.1 17.1 0 0 1 .92 2.35 13.24 13.24 0 0 1 .55 5.05 11.7 11.7 0 0 1-5.03 8.49Z"></path><path fill="#f44552" d="M264.49 303.32a33.87 33.87 0 0 0 4.3-4.25 24.19 24.19 0 0 0 3.27-5 16.44 16.44 0 0 0 1.62-5.65l.1-1.49-.08-1.49a6.91 6.91 0 0 0-.18-1.5c-.09-.49-.18-1-.26-1.5a14.08 14.08 0 0 1 1.2 6 14.55 14.55 0 0 1-1.5 6 19.68 19.68 0 0 1-3.6 5 20.23 20.23 0 0 1-4.87 3.88Z"></path><circle cx="265.81" cy="284.02" r="1.5" fill="#0850ec"></circle><circle cx="272.98" cy="281.3" r="1.5" fill="#0850ec"></circle><rect width="27.24" height="5.41" x="239.3" y="305.13" fill="#0850ec" rx="2.7" transform="rotate(-22.15 252.905 307.81)"></rect><path fill="#f44552" d="m259.28 302.32-7.93 3.23-5.68-14a7.62 7.62 0 0 1 5.11-10.24 6.84 6.84 0 0 1 5.3 1.16 11.17 11.17 0 0 1 4.83 11.73Z"></path><path fill="#ffcd52" d="m258.74 302.5-6.74 2.74-4.82-11.84a6.45 6.45 0 0 1 4.33-8.67 5.78 5.78 0 0 1 4.49 1 9.5 9.5 0 0 1 4.1 9.94Z"></path><path fill="#f44552" d="m247 307.31 4.31-1.76-4.31-10.62c-2.81-3-7.72-4.79-10.29-1.62a6.08 6.08 0 0 0-1 4.71 9.94 9.94 0 0 0 7.74 8.19Z"></path><path fill="#ffcd52" d="m247.61 307 3-1.25-3.06-7.51c-2-2.09-5.46-3.39-7.28-1.15a4.31 4.31 0 0 0-.7 3.34 7 7 0 0 0 5.48 5.79Z"></path><path fill="#d24131" d="m244.31 292.82 5.44 13.38 1.6-.65-4.35-10.62a11.67 11.67 0 0 0-2.69-2.11Z"></path><path fill="#d86c1d" d="m249.73 306.16.93-.38-3.06-7.52A8.49 8.49 0 0 0 246 297ZM242.06 309.42a7 7 0 0 1 1.48 2.32 6.84 6.84 0 0 1 .55 2.69 6.64 6.64 0 0 1-1.48-2.32 6.84 6.84 0 0 1-.55-2.69ZM244.59 308.39a6.85 6.85 0 0 1 1.47 2.32 6.68 6.68 0 0 1 .55 2.7 7 7 0 0 1-1.48-2.32 6.85 6.85 0 0 1-.54-2.7ZM246.9 307.45a7 7 0 0 1 1.48 2.32 6.84 6.84 0 0 1 .55 2.69 6.64 6.64 0 0 1-1.48-2.32 6.84 6.84 0 0 1-.55-2.69ZM249.18 306.52a6.85 6.85 0 0 1 1.47 2.32 6.68 6.68 0 0 1 .55 2.7 7.6 7.6 0 0 1-2-5ZM251.5 305.58a6.73 6.73 0 0 1 1.5 2.32 6.84 6.84 0 0 1 .55 2.69 6.73 6.73 0 0 1-1.48-2.32 6.84 6.84 0 0 1-.57-2.69ZM253.76 304.66a6.85 6.85 0 0 1 1.47 2.32 6.67 6.67 0 0 1 .55 2.69 6.76 6.76 0 0 1-1.47-2.32 6.67 6.67 0 0 1-.55-2.69ZM256 303.74a7 7 0 0 1 1.48 2.32 6.85 6.85 0 0 1 .54 2.7 7.6 7.6 0 0 1-2-5ZM258.15 302.87a7 7 0 0 1 1.48 2.32 6.84 6.84 0 0 1 .54 2.69 6.72 6.72 0 0 1-1.47-2.31 6.89 6.89 0 0 1-.55-2.7ZM260.17 301.88a6.73 6.73 0 0 1 1.48 2.32 6.85 6.85 0 0 1 .55 2.7 6.73 6.73 0 0 1-1.48-2.32 7.07 7.07 0 0 1-.55-2.7ZM262.46 301a7 7 0 0 1 1.48 2.32 6.84 6.84 0 0 1 .54 2.69 6.76 6.76 0 0 1-1.47-2.32 6.84 6.84 0 0 1-.55-2.69Z"></path><path fill="#f44552" d="M169.87 130.11a11.65 11.65 0 0 1-9.77-1.37 13.27 13.27 0 0 1-3.63-3.57 19 19 0 0 1-1.27-2.17c-.32-.78-.62-1.56-.88-2.35.47.7.85 1.43 1.31 2.11l.72 1a7.66 7.66 0 0 0 .74 1c.27.3.54.6.79.91s.59.55.88.82a5.62 5.62 0 0 0 .91.77 11.4 11.4 0 0 0 1 .7 13.71 13.71 0 0 0 4.38 1.85 15.4 15.4 0 0 0 4.82.3Z"></path><path fill="#f44552" d="M169.93 130.6a20.58 20.58 0 0 1-6 1.51 19.83 19.83 0 0 1-6.19-.31 14.69 14.69 0 0 1-5.67-2.58 14.16 14.16 0 0 1-4-4.67c.35.37.69.75 1 1.13a7.15 7.15 0 0 0 1.06 1.07l1.12 1 1.23.84a16.23 16.23 0 0 0 5.44 2.24 23.86 23.86 0 0 0 5.92.51 34.14 34.14 0 0 0 6.09-.74Z"></path><circle cx="153.97" cy="119.66" r="1.5" fill="#0850ec"></circle><circle cx="147.39" cy="123.59" r="1.5" fill="#0850ec"></circle><rect width="27.24" height="5.41" x="167.03" y="121.62" fill="#0850ec" rx="2.7" transform="rotate(150.51 180.65 124.329)"></rect><path fill="#f44552" d="m172.38 125.9 7.45-4.21-7.42-13.12a7.63 7.63 0 0 0-11.21-2.35 6.85 6.85 0 0 0-2.38 4.87 11.2 11.2 0 0 0 6.18 11.07Z"></path><path fill="#ffcd52" d="m172.85 125.59 6.32-3.57-6.29-11.12a6.47 6.47 0 0 0-9.5-2 5.82 5.82 0 0 0-2 4.13 9.5 9.5 0 0 0 5.26 9.38Z"></path><path fill="#f44552" d="m183.89 119.39-4.06 2.3-5.65-10c-.57-4 1-9 5.12-9.07a6 6 0 0 1 4.31 2.15 9.94 9.94 0 0 1 1.61 11.15Z"></path><path fill="#ffcd52" d="m183.31 119.66-2.87 1.63-4-7.07c-.4-2.86.74-6.38 3.62-6.42a4.35 4.35 0 0 1 3.06 1.52 7.05 7.05 0 0 1 1.14 7.89Z"></path><path fill="#d24131" d="m174.22 108.26 7.12 12.57-1.51.86-5.65-10a11.68 11.68 0 0 1 .04-3.43Z"></path><path fill="#d86c1d" d="m181.31 120.79-.87.5-4-7.07a8.42 8.42 0 0 1 0-2.07ZM188.63 116.8a6.89 6.89 0 0 1 1.77 2.1 6.81 6.81 0 0 1 .9 2.6 6.89 6.89 0 0 1-1.77-2.1 6.81 6.81 0 0 1-.9-2.6ZM186.26 118.14a7.6 7.6 0 0 1 2.67 4.7 7.53 7.53 0 0 1-2.67-4.7ZM184.08 119.37a7.68 7.68 0 0 1 2.68 4.7A6.57 6.57 0 0 1 185 122a6.81 6.81 0 0 1-.92-2.63ZM181.94 120.58a7.68 7.68 0 0 1 2.68 4.7 6.57 6.57 0 0 1-1.78-2.1 6.81 6.81 0 0 1-.9-2.6ZM179.76 121.82a7 7 0 0 1 1.77 2.1 6.81 6.81 0 0 1 .9 2.6 7.53 7.53 0 0 1-2.67-4.7ZM177.64 123a6.89 6.89 0 0 1 1.77 2.1 6.81 6.81 0 0 1 .9 2.6 7.6 7.6 0 0 1-2.67-4.7ZM175.52 124.21a7.68 7.68 0 0 1 2.68 4.7 6.57 6.57 0 0 1-1.78-2.1 6.81 6.81 0 0 1-.9-2.6ZM173.51 125.35a6.89 6.89 0 0 1 1.77 2.1 6.81 6.81 0 0 1 .9 2.6 6.89 6.89 0 0 1-1.77-2.1 6.81 6.81 0 0 1-.9-2.6ZM171.48 126.33a6.67 6.67 0 0 1 1.77 2.1 6.83 6.83 0 0 1 .9 2.59 6.67 6.67 0 0 1-1.77-2.1 6.83 6.83 0 0 1-.9-2.59ZM169.39 127.59a6.89 6.89 0 0 1 1.77 2.1 6.65 6.65 0 0 1 .9 2.6 7.53 7.53 0 0 1-2.67-4.7Z"></path><path fill="none" stroke="#aa3329" stroke-linecap="round" stroke-linejoin="round" d="M198.71 134.63v18.46M203.33 134.63l1.68 18.46M208.29 134.63l.28 18.46M213.54 134.63l-1.19 18.46M216.89 134.63l.35 18.46M222.48 134.63l.28 18.46M227.8 134.63l.28 18.46M232.57 134.63l1.1 18.46M237.86 134.63l.7 18.46M244.44 134.63v18.46M250.87 134.63v18.46M256.27 134.63v18.46M262.89 134.63l-.63 18.46M269.46 134.63l-.56 18.46M275.27 134.63l-.98 18.46M279.53 134.63v18.46M284.77 134.63l-.35 18.46M291.22 134.63l-1.08 18.46M296.46 134.63l-.66 18.46M300.56 134.63v18.46M304.57 134.63v18.46M309.02 134.63v18.46"></path><path fill="#fcfcfc" d="m171.48 266.27 62.19-113.18h-10.91l-51.28 91.77v21.41zM171.38 358.09a12 12 0 0 0 5.78 10.25L297.6 153.09h-25.91L171.38 332.58Z"></path><path fill="#f2f2f2" d="m328.91 356.36-.25-20.15-.14-20.16-.11-40.3.11-40.31.14-20.15.25-20.15.24 20.15.14 20.15.11 40.31-.11 40.3-.14 20.16-.24 20.15z"></path><path fill="#ffedc5" d="M14.59 45.87 2.53 90.56A35.63 35.63 0 0 1 1.15 86l10-36.94a33.06 33.06 0 0 1 3.44-3.19ZM6.08 55.55 0 78a39.33 39.33 0 0 1 6.08-22.45ZM21.08 41.57 6 97.57a35.48 35.48 0 0 1-1.75-3.19L18 43.37a26 26 0 0 1 3.08-1.8ZM27.3 38.92 10 103a24.17 24.17 0 0 1-2-2.38L24.4 40a24.73 24.73 0 0 1 2.9-1.08ZM33.19 37.46l-18.82 69.73a24.71 24.71 0 0 1-2.1-1.89L30.43 38a3.84 3.84 0 0 1 .4-.11c.78-.16 1.57-.31 2.36-.43ZM38.71 36.94l-19.84 73.48c-.76-.47-1.49-1-2.21-1.49l19.4-71.85a21.39 21.39 0 0 1 2.65-.14ZM44 37.13l-20.47 75.75c-.79-.35-1.56-.71-2.31-1.12L41.41 37a24.11 24.11 0 0 1 2.59.13ZM49.23 38.06l-20.69 76.66a21.1 21.1 0 0 1-2.4-.8l20.63-76.4c.82.15 1.66.32 2.46.54ZM54.32 39.69 33.75 115.9c-.83-.12-1.65-.27-2.48-.47l20.67-76.59a21 21 0 0 1 2.38.85ZM59.27 42l-20.06 74.35c-.86 0-1.73 0-2.58-.12L57 40.83c.74.39 1.53.78 2.27 1.17ZM63.94 45.13 44.81 116a24.57 24.57 0 0 1-2.68.27l19.62-72.7a21.73 21.73 0 0 1 2.19 1.56ZM68.39 49.12 50.66 114.8c-.68.21-1.35.39-2 .55-.25.06-.53.12-.78.16l18.47-68.4a27.81 27.81 0 0 1 2.04 2.01ZM72.43 54.08l-15.79 58.5a28.28 28.28 0 0 1-3 1.24L70.52 51.5a23.58 23.58 0 0 1 1.91 2.58ZM76 60.47l-13 48.39a28.88 28.88 0 0 1-3.16 2l14.5-53.79a37.09 37.09 0 0 1 1.66 3.4ZM78.92 70l-8.62 32a33.22 33.22 0 0 1-3.65 3.87l11-40.95c.28.91.54 1.87.76 2.81.23.75.38 1.55.51 2.27ZM75.19 94.5l4.21-15.61a39.29 39.29 0 0 1-4.21 15.61Z"></path><path fill="#fcfcfc" d="M281.16 370.09h11.82l42.83-77.95v-19.66h-.1l-54.55 97.61z"></path><path fill="#f2f2f2" d="m308.44 370.09 27.37-49.81v-20.17l-39.11 69.98h11.74z"></path><path fill="none" stroke="#f2f2f2" stroke-linecap="round" stroke-linejoin="round" d="m284.19 231.69-54.32 101.88M318.38 205.99l-54.32 101.88M244.23 164.95 189.9 266.83M308.86 263.98l-54.32 101.89"></path><path fill="none" stroke="#545454" stroke-linecap="round" stroke-linejoin="round" d="M58 370.92h389.82"></path></g></g></svg>